<svg preserveAspectRatio="none" width="100%" height="100%" overflow="visible" style="display: block;" viewBox="0 0 540 360" fill="none" xmlns="http://www.w3.org/2000/svg">
<g id="-">
<rect width="540" height="360" fill="white"/>
<path id="Union" d="M227.698 180.267C227.693 180.448 227.63 180.602 227.487 180.74L223.341 184.793C223.229 184.909 223.08 184.968 222.91 184.968C222.565 184.968 222.294 184.702 222.294 184.357C222.294 184.187 222.363 184.033 222.48 183.911L226.216 180.267L222.48 176.623C222.363 176.506 222.294 176.351 222.294 176.181C222.294 175.831 222.565 175.565 222.91 175.565C223.08 175.565 223.229 175.624 223.341 175.741L227.487 179.795C227.63 179.933 227.698 180.087 227.698 180.267ZM235.088 180.264C235.083 180.445 235.019 180.599 234.876 180.737L230.731 184.791C230.619 184.907 230.47 184.966 230.3 184.966C229.955 184.966 229.684 184.7 229.684 184.355C229.684 184.185 229.753 184.031 229.87 183.909L233.606 180.264L229.87 176.621C229.753 176.504 229.684 176.349 229.684 176.179C229.684 175.829 229.955 175.563 230.3 175.563C230.47 175.563 230.619 175.622 230.731 175.739L234.876 179.792C235.02 179.93 235.088 180.084 235.088 180.264ZM242.481 180.267C242.475 180.448 242.411 180.602 242.268 180.74L238.123 184.793C238.012 184.909 237.863 184.968 237.693 184.968C237.347 184.968 237.076 184.702 237.076 184.357C237.076 184.187 237.145 184.033 237.262 183.911L240.998 180.267L237.262 176.623C237.145 176.506 237.076 176.351 237.076 176.181C237.077 175.831 237.347 175.565 237.693 175.565C237.863 175.565 238.012 175.624 238.123 175.741L242.268 179.795C242.411 179.933 242.481 180.087 242.481 180.267ZM249.863 180.267C249.858 180.448 249.794 180.602 249.651 180.74L245.506 184.793C245.394 184.909 245.245 184.968 245.075 184.968C244.73 184.968 244.459 184.702 244.459 184.357C244.459 184.187 244.528 184.033 244.645 183.911L248.381 180.267L244.645 176.623C244.528 176.506 244.459 176.351 244.459 176.181C244.459 175.831 244.73 175.565 245.075 175.565C245.245 175.565 245.394 175.624 245.506 175.741L249.651 179.795C249.794 179.933 249.863 180.087 249.863 180.267ZM257.256 180.267C257.251 180.448 257.187 180.602 257.043 180.74L252.898 184.793C252.786 184.909 252.637 184.968 252.467 184.968C252.122 184.968 251.851 184.702 251.851 184.357C251.851 184.187 251.92 184.033 252.037 183.911L255.773 180.267L252.037 176.623C251.92 176.506 251.851 176.351 251.851 176.181C251.851 175.831 252.122 175.565 252.467 175.565C252.637 175.565 252.786 175.624 252.898 175.741L257.043 179.795C257.186 179.933 257.256 180.087 257.256 180.267ZM264.648 180.267C264.642 180.448 264.579 180.602 264.436 180.74L260.29 184.793C260.179 184.909 260.03 184.968 259.86 184.968C259.514 184.968 259.243 184.702 259.243 184.357C259.243 184.187 259.312 184.033 259.429 183.911L263.165 180.267L259.429 176.623C259.312 176.506 259.243 176.351 259.243 176.181C259.244 175.831 259.514 175.565 259.86 175.565C260.03 175.565 260.179 175.624 260.29 175.741L264.436 179.795C264.579 179.933 264.648 180.087 264.648 180.267ZM272.035 180.267C272.03 180.448 271.966 180.602 271.822 180.74L267.678 184.793C267.566 184.909 267.417 184.968 267.247 184.968C266.902 184.968 266.631 184.702 266.631 184.357C266.631 184.187 266.7 184.033 266.817 183.911L270.553 180.267L266.817 176.623C266.7 176.506 266.631 176.351 266.631 176.181C266.631 175.831 266.902 175.565 267.247 175.565C267.417 175.565 267.566 175.624 267.678 175.741L271.822 179.795C271.966 179.933 272.035 180.087 272.035 180.267ZM279.428 180.267C279.423 180.448 279.358 180.602 279.215 180.74L275.07 184.793C274.958 184.909 274.809 184.968 274.639 184.968C274.294 184.968 274.023 184.702 274.023 184.357C274.023 184.187 274.092 184.033 274.209 183.911L277.945 180.267L274.209 176.623C274.092 176.506 274.023 176.351 274.023 176.181C274.023 175.831 274.294 175.565 274.639 175.565C274.809 175.565 274.958 175.624 275.07 175.741L279.215 179.795C279.358 179.933 279.428 180.087 279.428 180.267ZM286.815 180.267C286.809 180.448 286.746 180.602 286.603 180.74L282.457 184.793C282.346 184.909 282.197 184.968 282.027 184.968C281.681 184.968 281.41 184.702 281.41 184.357C281.41 184.187 281.48 184.033 281.597 183.911L285.332 180.267L281.597 176.623C281.48 176.506 281.41 176.351 281.41 176.181C281.411 175.831 281.681 175.565 282.027 175.565C282.197 175.565 282.346 175.624 282.457 175.741L286.603 179.795C286.746 179.933 286.815 180.087 286.815 180.267ZM294.202 180.264C294.197 180.445 294.134 180.599 293.99 180.737L289.845 184.791C289.733 184.907 289.584 184.966 289.414 184.966C289.069 184.966 288.798 184.7 288.798 184.355C288.798 184.185 288.867 184.031 288.984 183.909L292.72 180.264L288.984 176.621C288.867 176.504 288.798 176.349 288.798 176.179C288.798 175.829 289.069 175.563 289.414 175.563C289.584 175.563 289.733 175.622 289.845 175.739L293.99 179.792C294.134 179.93 294.202 180.084 294.202 180.264ZM301.595 180.267C301.59 180.448 301.525 180.602 301.382 180.74L297.237 184.793C297.125 184.909 296.977 184.968 296.807 184.968C296.461 184.968 296.19 184.702 296.19 184.357C296.19 184.187 296.259 184.033 296.376 183.911L300.112 180.267L296.376 176.623C296.259 176.506 296.19 176.351 296.19 176.181C296.19 175.831 296.462 175.565 296.807 175.565C296.977 175.565 297.125 175.624 297.237 175.741L301.382 179.795C301.525 179.933 301.595 180.087 301.595 180.267ZM308.983 180.267C308.977 180.448 308.913 180.602 308.77 180.74L304.624 184.793C304.513 184.909 304.364 184.968 304.194 184.968C303.848 184.968 303.577 184.702 303.577 184.357C303.577 184.187 303.647 184.033 303.764 183.911L307.499 180.267L303.764 176.623C303.647 176.506 303.577 176.351 303.577 176.181C303.578 175.831 303.848 175.565 304.194 175.565C304.364 175.565 304.513 175.624 304.624 175.741L308.77 179.795C308.913 179.933 308.983 180.087 308.983 180.267ZM316.374 180.264C316.369 180.445 316.305 180.599 316.162 180.737L312.017 184.791C311.905 184.907 311.756 184.966 311.586 184.966C311.241 184.966 310.97 184.7 310.97 184.355C310.97 184.185 311.039 184.031 311.155 183.909L314.892 180.264L311.155 176.621C311.039 176.504 310.97 176.349 310.97 176.179C310.97 175.829 311.241 175.563 311.586 175.563C311.756 175.563 311.905 175.622 312.017 175.739L316.162 179.792C316.306 179.93 316.374 180.084 316.374 180.264Z" fill="url(#paint0_linear_0_4)"/>
</g>
<defs>
<linearGradient id="paint0_linear_0_4" x1="316.376" y1="181.57" x2="222.296" y2="181.57" gradientUnits="userSpaceOnUse">
<stop stop-color="#ACABA4"/>
<stop offset="1" stop-color="#ACABA4" stop-opacity="0"/>
</linearGradient>
</defs>
</svg>
